Patient4_TMGait_0pt4_02_left_28_EMG.mot
version=1
nRows=23
nColumns=33
inDegrees=no
endheader
time	1LAddLong	2LGlutMax	3LGlutMed	4LIliopsoas	5LSemiMemb	6LBicFemLong	7LRecFem	8LVastMed	9LVastLat	10LGasMed	11LTibAnt	12lTibPost	13LPeroneusLong	14LSol	15LExtDigLong	16LFlexDigLong	17RAddLong	18RGlutMax	19RGlutMed	20RIliopsoas	21RSemiMemb	22RBicFemLong	23RRecFem	24RVastMed	25RVastLat	26RGasMed	27RTibAnt	28RTibPost	29RPeroneusLong	30RSol	31RExtDigLong	32RFlexDigLong
38.025	0.012512	0.016022	-0.15503	0.014038	0.002747	-0.19134	-0.15747	-0.013428	-0.28351	-0.029297	0.00412	0.035095	-1.221	0.21469	0.069885	0.012512	-0.026093	-0.10864	-0.33218	0.007477	-0.089111	0.17761	0.38162	-0.18631	0.024414	-0.02121	0.010071	0.020905	0.10208	-0.58823	0.001373	-0.025787
38.026	0.010071	0.035706	-0.001068	0.013428	-0.054626	-0.10956	-0.12192	-0.013275	-0.24155	0.02594	-0.041199	0.032043	-1.1977	-0.11093	-0.12039	-0.002899	-0.002136	-0.055847	-0.31754	0.005951	-0.10284	0.15625	0.38345	-0.19211	0.011444	-0.018311	0.00351	0.034332	0.12466	0.095978	-0.000916	-0.018768
38.027	-0.005035	0.12894	0.09201	-0.010986	-0.081177	-0.062256	-0.066071	-0.003662	-0.18997	0.009613	-0.008392	0.029907	0.016632	-0.16541	-0.14786	0.000153	0.036163	0.026398	-0.26001	0.03418	-0.063477	0.14435	0.3688	-0.19867	0.018158	-0.000916	-0.024261	0.035248	0.090332	0.19913	-0.006104	-0.012817
38.028	-0.000916	0.16373	0.18753	-0.016174	-0.026703	-0.091553	0.013275	0.011292	-0.21637	-0.028076	0.005035	0.027618	0.63278	-0.14511	-0.062561	-0.007477	0.058594	0.06134	-0.2562	-0.024567	-0.034485	0.15686	0.30182	-0.14526	0.027924	0.018921	-0.001984	0.038147	0.017853	0.11902	-0.003052	-0.014954
38.029	0.011902	0.15137	0.019684	0.003357	0.007019	-0.15411	-0.009613	0.010681	-0.18356	-0.013885	0.007477	0.019836	-0.10254	-0.2475	-0.034332	-0.006256	0.042877	0.10239	-0.28793	-0.094452	-0.010223	0.18173	0.26932	-0.10559	0.016327	0.02594	0.007324	0.014648	-0.038147	0.34622	-0.002594	-0.009155
38.03	0.021667	0.12222	0.015106	0.006866	0.037079	-0.077362	0.057373	-0.001526	-0.044556	0.009308	-0.005341	0.016327	-0.27054	-0.40771	-0.075684	-0.008698	0.050354	0.13809	-0.23407	-0.070343	-0.002136	0.17151	0.26733	-0.045929	0.039978	0.015717	-0.003357	-0.000458	0.08194	0.53619	-0.001526	-0.016327
38.031	0.026398	0.11307	-0.10941	0.005493	-0.052185	0.016937	0.10025	0.004578	0.037384	0.042572	-0.001373	0.009155	-0.4512	-0.5481	-0.03952	-0.013123	0.016937	0.13687	-0.19348	0.028534	0.006714	0.15549	0.22644	-0.038147	0.042572	-0.006561	-0.001373	-0.010681	0.11704	0.2095	-0.000153	-0.016937
38.032	0.006561	0.12695	-0.049591	-0.003662	-0.092621	0.063171	0.11017	0.004425	0.033112	0.037537	-0.013123	0.013428	-0.1207	-0.56824	-0.002289	-0.019836	0.007172	0.18982	-0.23514	0.14526	0.024567	0.11902	0.21393	-0.007324	0.0354	0.005341	0.003052	-0.010681	0.026245	0.14786	-0.005341	-0.015717
38.033	0.005035	0.13626	0.023956	-0.011292	-0.079956	-0.06073	-0.040283	0.003967	0.053253	0.042114	-0.01358	0.017548	0.062408	-0.3305	0.021057	-0.021667	0.013733	0.25574	-0.21164	0.19547	0.028229	0.090485	0.20126	0.052032	0.05249	-0.003357	0.006104	-0.015869	0.06546	0.098419	0.001373	-0.015869
38.034	0.011139	0.11612	-0.02655	0.00946	-0.019226	-0.16464	-0.18433	0.001221	0.13016	0.004578	-0.029297	0.017395	0.11108	-0.068665	0.004578	-0.012512	0.038757	0.26901	-0.23956	0.10025	0.023499	0.09552	0.24246	0.058441	0.064087	-0.00885	-0.046082	-0.007019	0.23315	0.032959	-0.002441	-0.011597
38.035	0.013123	0.090027	-0.11124	0.002594	0.031281	-0.11383	-0.31662	0.006409	0.18509	-0.030975	0.010223	0.009918	-0.010834	0.027313	-0.009613	-0.016479	0.081329	0.30563	-0.16327	-0.103	0.014343	0.086975	0.25589	0.064392	0.044708	-0.003815	-0.095673	-0.012665	-0.068207	-0.099335	0.006866	-0.013885
38.036	0.008087	0.12344	-0.1683	0.018005	0.078735	-0.069733	-0.38605	0.019226	0.30518	-0.016022	0.037537	-0.001678	-0.050964	0.025635	-0.023499	-0.022583	0.1088	0.29648	-0.24506	-0.096436	0.000763	0.049896	0.29083	0.067291	0.044861	-0.000458	-0.021973	-0.011902	-0.36102	-0.1973	0.001831	-0.00885
38.037	0.010223	0.18677	-0.17197	0.010529	0.011749	-0.055847	-0.39627	-0.006561	0.35217	0.015411	0.066223	0.006866	0.045929	-0.076141	-0.065765	-0.02121	0.060425	0.36026	-0.24017	-0.093231	-0.027771	0.031891	0.26718	0.003204	0.037689	0.005188	-0.033569	-0.014343	-0.28153	-0.31799	0	-0.020599
38.038	-0.002747	0.30716	-0.15411	0.019531	-0.008545	-0.003052	-0.18555	-0.005188	0.17899	0.046539	0.081635	-0.007172	0.088654	-0.076141	0.020752	-0.010223	0.0383	0.37811	-0.17944	0.025177	-0.035553	0.019531	0.27878	-0.024109	0.032654	0.007629	-0.034332	-0.011139	-0.11597	-0.38544	-0.001831	-0.024261
38.039	-0.022583	0.36697	-0.007477	0.001221	-0.02594	0.034332	-0.032806	-0.00946	-0.13351	0.076752	0.1474	-0.007172	0.049591	-0.021973	0.0914	-0.012512	0.00061	0.37781	-0.13596	0.11353	-0.046997	0.014801	0.25299	-0.020294	0.036926	0.003815	0.040894	-0.010223	-0.065918	-0.3418	-0.002136	-0.024109
38.04	-0.012207	0.35309	0.020752	0.012207	-0.017548	0.024414	0.008087	0.006256	-0.32272	0.063171	0.065613	-0.013885	-0.001068	-0.000916	0.033264	-0.019073	-0.009003	0.41733	-0.15228	0.19928	-0.052185	0.029449	0.25314	-0.047302	0.026398	0.000153	0.10986	-0.009766	-0.099945	-0.19134	-0.005493	-0.022583
38.041	-0.005341	0.3862	0.078278	0.005188	0.041809	0.04364	-0.008698	0.01236	-0.32105	0.090942	-0.050049	-0.014343	-0.001678	0.012207	0.001984	-0.012817	-0.016785	0.40253	-0.1445	0.17166	-0.053253	-0.011902	0.2771	-0.05127	0.019531	0.007477	0.046082	0.005341	-0.043793	-0.002899	0.000305	-0.017853
38.042	-0.017395	0.40756	0.070343	0.017853	0.020905	0.098724	0.042725	0.010071	-0.19882	0.071716	-0.17563	-0.011749	0.13504	0.13077	0.02594	-0.022125	0.006256	0.38727	-0.10483	0.019684	-0.049286	-0.018158	0.30701	-0.032196	0.03067	0.003967	0.021057	-0.00412	-0.041962	-0.023651	-0.003357	-0.024872
38.043	-0.035248	0.35416	0.0914	0.057373	-0.000305	0.10452	0.11978	0.031433	-0.11597	0.065918	-0.13657	-0.014801	0.43869	0.20218	0.023041	-0.018158	0.028687	0.41916	-0.03952	-0.039673	-0.017548	-0.037994	0.26459	-0.085144	0.009918	0.009155	-0.12116	-0.009766	0.057983	-0.06134	-0.002441	-0.024567
38.044	-0.022888	0.35553	0.11505	0.027008	-0.031738	0.054932	0.079041	0.013885	0.057373	0.04425	-0.06485	-0.007935	0.58289	0.24689	-0.005951	-0.013275	0.076752	0.49591	0.00061	-0.018768	-0.04303	-0.059204	0.31006	-0.11826	0.021515	0.006714	-0.21179	-0.008087	0.10513	-0.070953	-0.002441	-0.017242
38.045	-0.014191	0.41367	0.15595	0.014343	-0.063629	0.04303	0.040131	0.016479	0.091095	-0.006256	0.007935	-0.006104	0.77011	0.29984	0.026703	-0.018463	0.067749	0.53558	0.042572	-0.016785	-0.06958	0.12619	0.30518	-0.06546	0.038757	0.007324	-0.098724	-0.006866	0.11932	-0.095978	-0.000763	-0.017548
38.046	-0.013428	0.31937	-0.008392	0.009918	-0.039673	0.002747	-0.036316	0.020294	0.026398	-0.049591	0.017548	0.00412	-0.29251	0.33188	0.078583	-0.009003	0.061188	0.53268	0.016479	-0.026855	-0.055084	0.19852	0.29327	-0.006256	0.033569	0.001831	0.033112	-0.007324	0.15518	-0.040741	-0.002136	-0.019989
38.047	-0.018005	0.25467	-0.05722	-0.008087	-0.011902	0.022736	-0.1561	0.013123	0.12009	0.029755	0.006256	0.004578	-0.54947	0.063171	-0.16892	-0.005798	0.076599	0.54245	-0.075378	-0.097198	-0.042877	0.15091	0.29862	0.014191	0.049286	-0.005035	0.10178	0.004272	0.18433	0.11887	-0.003815	-0.017242
